# xmcd
#
# Track frame offsets:
#	150
#	18691
#	34774
#	52098
#	68894
#	85975
#	100610
#	113674
#	129053
#	145035
#	161534
#	178440
#
# Disc length: 2589 seconds
#
# Revision: 2
# Processed by: cddbd v1.4PL0 Copyright (c) Steve Scherf et al.
# Submitted via: audiograbber 1.81.03
#
DISCID=9e0a1b0c
DTITLE=Tap 011 - Gace
DYEAR=1996
DGENRE=Pop
TTITLE0=Zbog tebe (gace)
TTITLE1=Televizor
TTITLE2=Zene
TTITLE3=Vrapci
TTITLE4=Tajne
TTITLE5=Komsinica Mica
TTITLE6=Vuk
TTITLE7=Ovca
TTITLE8=Ljubav ne gleda na sat
TTITLE9=Sanjaj me
TTITLE10=Muzika na safir
TTITLE11=Tvoja mala lujka
EXTD=
EXTT0=
EXTT1=
EXTT2=
EXTT3=
EXTT4=
EXTT5=
EXTT6=
EXTT7=
EXTT8=
EXTT9=
EXTT10=
EXTT11=
PLAYORDER=
